<svg version="1.1" viewBox="0.0 0.0 100.0 75.0" fill="none" stroke="none" stroke-linecap="square" stroke-miterlimit="10" xmlns:xlink="http://www.w3.org/1999/xlink" xmlns="http://www.w3.org/2000/svg"><clipPath id="p.0"><path d="m0 0l100.0 0l0 75.0l-100.0 0l0 -75.0z" clip-rule="nonzero"/></clipPath><g clip-path="url(#p.0)"><path fill="#000000" fill-opacity="0.0" d="m0 0l100.0 0l0 75.0l-100.0 0z" fill-rule="evenodd"/><path fill="#000000" fill-opacity="0.0" d="m0 0l100.0 0l0 74.99213l-100.0 0z" fill-rule="evenodd"/><path fill="#000000" d="m38.640625 40.896873l2.109375 -3.984375l0 21.6875l-2.109375 0l0 -17.703125zm4.21875 -8.078125l2.109375 -3.984375l0 29.765625l-2.109375 0l0 -25.78125zm4.21875 -7.96875l2.109375 -4.015625l0 37.765625l-2.109375 0l0 -33.75zm-14.140625 15.0625l-1.203125 -2.203125l14.53125 -27.625l2.375 0l-15.703125 29.828125zm-2.4375 -4.609375l-1.234375 -2.21875l12.1875 -23.0l2.40625 0l-13.359375 25.21875zm-14.125 1.84375l2.109375 3.984375l0 17.46875l-2.109375 0l0 -21.453125zm-4.21875 -8.015625l2.109375 3.984375l0 25.484375l-2.109375 0l0 -29.46875zm-4.21875 -8.03125l2.109375 4.015625l0 33.484375l-2.109375 0l0 -37.5zm17.0625 24.84375l-2.375 0l-16.796875 -31.84375l0 44.5l-2.109375 0l0 -48.515625l2.375 0l18.90625 35.859375zm4.765625 0l-2.390625 0l-18.875 -35.859375l2.40625 0l18.859375 35.859375zm21.53125 -31.84375l-16.78125 31.84375l-2.40625 0l-18.828125 -35.859375l2.375 0l17.6875 33.625l17.671875 -33.625l2.390625 0l0 48.515625l-2.109375 0l0 -44.5zm27.285156 14.96875l-3.546875 0q-2.25 0 -3.25 -1.15625q-1.0 -1.15625 -1.0 -3.0625q0 -4.21875 6.296875 -4.21875q5.921875 0 8.90625 1.75l-1.703125 1.296875q-2.046875 -0.9375 -7.203125 -0.9375q-2.515625 0 -3.390625 0.5625q-0.859375 0.546875 -0.859375 1.546875q0 1.0 0.46875 1.5625q0.46875 0.546875 1.734375 0.546875l3.625 0q3.96875 0 7.140625 1.34375q3.171875 1.34375 5.21875 3.6875q2.0625 2.328125 3.140625 5.359375q1.09375 3.03125 1.09375 6.484375q0 2.8125 -0.796875 5.328125q-0.796875 2.515625 -2.390625 4.625q-1.59375 2.109375 -3.84375 3.65625q-2.234375 1.53125 -5.328125 2.390625q-3.078125 0.875 -6.6875 0.875q-5.65625 0 -10.59375 -1.71875q-4.9375 -1.703125 -8.21875 -4.78125l1.703125 -1.265625q2.984375 2.703125 7.484375 4.1875q4.5 1.46875 9.625 1.46875q4.015625 0 7.25 -1.15625q3.234375 -1.15625 5.328125 -3.171875q2.09375 -2.03125 3.21875 -4.6875q1.140625 -2.671875 1.140625 -5.75q0 -4.078125 -1.640625 -7.375q-1.640625 -3.296875 -5.0 -5.34375q-3.359375 -2.046875 -7.921875 -2.046875zm-3.546875 2.109375l3.34375 0q5.9375 0 9.296875 3.640625q3.359375 3.625 3.359375 9.015625q0 5.484375 -3.90625 9.078125q-3.890625 3.578125 -10.921875 3.578125q-4.6875 0 -8.765625 -1.28125q-4.0625 -1.296875 -6.765625 -3.640625l1.640625 -1.3125q2.40625 1.953125 6.046875 3.046875q3.65625 1.078125 7.84375 1.078125q6.1875 0 9.453125 -2.953125q3.265625 -2.96875 3.265625 -7.59375q0 -4.578125 -2.75 -7.5625q-2.734375 -2.984375 -7.828125 -2.984375l-3.3125 0q-4.28125 0 -6.421875 -2.34375q-2.140625 -2.34375 -2.140625 -6.09375q0 -3.75 2.65625 -6.09375q2.65625 -2.34375 7.953125 -2.34375q3.71875 0 6.90625 0.875q3.203125 0.859375 5.28125 2.46875l-1.671875 1.28125q-3.65625 -2.515625 -10.515625 -2.515625q-4.421875 0 -6.46875 1.75q-2.03125 1.734375 -2.03125 4.578125q0 2.875 1.515625 4.609375q1.515625 1.71875 4.9375 1.71875zm0 4.21875l3.21875 0q4.28125 0 6.421875 2.375q2.140625 2.375 2.140625 6.0625q0 3.75 -2.65625 6.09375q-2.65625 2.34375 -7.953125 2.34375q-3.71875 0 -6.9375 -0.859375q-3.203125 -0.875 -5.28125 -2.484375l1.671875 -1.28125q3.65625 2.515625 10.546875 2.515625q4.421875 0 6.453125 -1.734375q2.046875 -1.75 2.046875 -4.59375q0 -2.84375 -1.53125 -4.578125q-1.515625 -1.75 -4.953125 -1.75l-3.1875 0q-6.0 0 -9.390625 -3.578125q-3.390625 -3.59375 -3.390625 -9.078125q0 -5.484375 3.890625 -9.0625q3.90625 -3.59375 10.9375 -3.59375q4.6875 0 8.75 1.296875q4.0625 1.28125 6.75 3.625l-1.640625 1.3125q-2.40625 -1.953125 -6.046875 -3.03125q-3.625 -1.09375 -7.8125 -1.09375q-6.171875 0 -9.453125 2.96875q-3.265625 2.953125 -3.265625 7.578125q0 4.59375 2.75 7.578125q2.765625 2.96875 7.921875 2.96875zm0 4.21875l3.21875 0q2.265625 0 3.25 1.171875q1.0 1.171875 1.0 3.046875q0 4.21875 -6.296875 4.21875q-5.953125 0 -8.9375 -1.765625l1.703125 -1.28125q2.046875 0.9375 7.234375 0.9375q2.515625 0 3.375 -0.546875q0.875 -0.5625 0.875 -1.5625q0 -0.96875 -0.484375 -1.53125q-0.484375 -0.578125 -1.78125 -0.578125l-3.15625 0q-4.046875 0 -7.3125 -1.3125q-3.265625 -1.328125 -5.359375 -3.640625q-2.09375 -2.3125 -3.21875 -5.359375q-1.109375 -3.046875 -1.109375 -6.5625q0 -2.8125 0.796875 -5.328125q0.796875 -2.53125 2.390625 -4.640625q1.59375 -2.109375 3.828125 -3.640625q2.25 -1.53125 5.34375 -2.390625q3.09375 -0.875 6.6875 -0.875q5.65625 0 10.578125 1.71875q4.921875 1.703125 8.203125 4.78125l-1.703125 1.265625q-2.984375 -2.703125 -7.46875 -4.171875q-4.484375 -1.484375 -9.609375 -1.484375q-4.015625 0 -7.25 1.15625q-3.234375 1.15625 -5.328125 3.1875q-2.09375 2.015625 -3.234375 4.6875q-1.125 2.65625 -1.125 5.734375q0 4.125 1.671875 7.4375q1.671875 3.3125 5.09375 5.328125q3.4375 2.0 8.125 2.0z" fill-rule="nonzero"/></g></svg>